<svg xmlns="http://www.w3.org/2000/svg" xmlns:xlink="http://www.w3.org/1999/xlink" width="50" zoomAndPan="magnify" viewBox="0 0 37.5 37.499999" height="50" preserveAspectRatio="xMidYMid meet" version="1.0"><defs><clipPath id="ad86da7273"><path d="M 0 2.890625 L 37 2.890625 L 37 33.976562 L 0 33.976562 Z M 0 2.890625 " clip-rule="nonzero"/></clipPath></defs><g clip-path="url(#ad86da7273)"><path fill="#7f9c3f" d="M 35.640625 21.425781 C 34.761719 20.960938 33.78125 21.140625 33.78125 21.140625 C 33.78125 21.140625 34.539062 23.207031 34.015625 26.585938 C 34.015625 26.585938 34.484375 16.136719 24.703125 12.160156 C 23.140625 11.523438 21.503906 11.144531 19.847656 11.007812 C 19.835938 10.882812 19.824219 10.761719 19.816406 10.640625 C 19.785156 10.140625 19.785156 9.632812 19.828125 9.136719 C 19.914062 8.144531 20.167969 7.171875 20.699219 6.371094 C 20.96875 5.972656 21.308594 5.625 21.710938 5.335938 C 22.117188 5.050781 22.59375 4.855469 23.097656 4.707031 C 23.480469 4.605469 23.882812 4.539062 24.292969 4.503906 C 24.375 5.222656 24.984375 5.777344 25.726562 5.777344 C 26.523438 5.777344 27.167969 5.132812 27.167969 4.335938 C 27.167969 3.535156 26.519531 2.890625 25.726562 2.890625 C 25 2.890625 24.398438 3.429688 24.296875 4.125 C 23.867188 4.078125 23.433594 4.066406 22.988281 4.101562 C 22.414062 4.152344 21.820312 4.269531 21.265625 4.527344 C 20.707031 4.773438 20.191406 5.136719 19.75 5.578125 C 18.871094 6.472656 18.332031 7.628906 18.003906 8.789062 C 17.839844 9.371094 17.726562 9.964844 17.652344 10.558594 C 17.632812 10.699219 17.617188 10.835938 17.605469 10.980469 C 15.800781 11.078125 14.003906 11.46875 12.304688 12.160156 C 2.519531 16.140625 2.988281 26.589844 2.988281 26.589844 C 2.46875 23.210938 3.222656 21.144531 3.222656 21.144531 C 3.222656 21.144531 2.246094 20.964844 1.367188 21.425781 C 0.488281 21.890625 0 26.972656 0.851562 27.746094 C 1.703125 28.523438 3.40625 28.75 3.40625 28.75 C 5.058594 34.113281 18.503906 33.289062 18.503906 33.289062 C 18.503906 33.289062 31.953125 34.113281 33.601562 28.75 C 33.601562 28.75 35.304688 28.515625 36.15625 27.746094 C 37.007812 26.96875 36.515625 21.890625 35.640625 21.425781 Z M 24.488281 29.953125 C 21.992188 30.167969 20.292969 26.6875 19.914062 26 C 19.695312 25.601562 19.027344 25.527344 18.503906 25.53125 C 17.980469 25.527344 17.3125 25.601562 17.09375 26 C 16.714844 26.6875 15.015625 30.167969 12.519531 29.953125 C 10.019531 29.742188 3.988281 27.890625 6.566406 20.703125 C 7.585938 17.867188 9.722656 16.082031 11.9375 14.964844 C 16.050781 12.890625 20.953125 12.890625 25.066406 14.964844 C 27.28125 16.082031 29.417969 17.863281 30.4375 20.703125 C 33.015625 27.886719 26.988281 29.738281 24.488281 29.953125 Z M 24.488281 29.953125 " fill-opacity="1" fill-rule="nonzero"/></g><path fill="#7f9c3f" d="M 12.726562 18.980469 C 11.929688 18.980469 11.285156 20.40625 11.285156 22.164062 C 11.285156 23.917969 11.929688 25.34375 12.726562 25.34375 C 13.523438 25.34375 14.171875 23.917969 14.171875 22.164062 C 14.171875 20.40625 13.523438 18.980469 12.726562 18.980469 Z M 12.726562 18.980469 " fill-opacity="1" fill-rule="nonzero"/><path fill="#7f9c3f" d="M 24.285156 18.980469 C 23.484375 18.980469 22.839844 20.40625 22.839844 22.164062 C 22.839844 23.917969 23.488281 25.34375 24.285156 25.34375 C 25.082031 25.34375 25.726562 23.917969 25.726562 22.164062 C 25.726562 20.40625 25.082031 18.980469 24.285156 18.980469 Z M 24.285156 18.980469 " fill-opacity="1" fill-rule="nonzero"/></svg>